<?xml version="1.0" encoding="UTF-8" standalone="no"?>
<svg xmlns="http://www.w3.org/2000/svg" viewBox="0 0 559 168">
  <path fill="#ffffff" d="M83.996.277C37.747.277.253 37.77.253 84.019c0 46.251 37.494 83.741 83.743 83.741 46.254 0 83.744-37.49 83.744-83.741 0-46.246-37.49-83.738-83.745-83.738l.001-.004zm38.404 120.78c-1.5 2.46-4.72 3.24-7.18 1.73-19.662-12.01-44.414-14.73-73.564-8.07-2.809.64-5.609-1.12-6.249-3.93-.643-2.81 1.11-5.61 3.926-6.25 31.9-7.291 59.263-4.15 81.337 9.34 2.46 1.51 3.24 4.72 1.73 7.18zm10.25-22.805c-1.89 3.075-5.91 4.045-8.98 2.155-22.51-13.839-56.823-17.846-83.448-9.764-3.453 1.043-7.1-.903-8.148-4.35-1.04-3.453.907-7.093 4.354-8.143 30.413-9.228 68.222-4.758 94.072 11.127 3.07 1.89 4.04 5.91 2.15 8.976v-.001zm.88-23.744c-26.99-16.031-71.52-17.505-97.289-9.684-4.138 1.255-8.514-1.081-9.768-5.219-1.254-4.14 1.08-8.513 5.221-9.771 29.581-8.98 78.756-7.245 109.83 11.202 3.73 2.209 4.95 7.016 2.74 10.733-2.2 3.722-7.02 4.949-10.73 2.739z"/>
  <path fill="#ffffff" d="M232.09 78.586c-14.459-3.448-17.033-5.868-17.033-10.953 0-4.804 4.523-8.037 11.249-8.037 6.52 0 12.985 2.455 19.763 7.509.205.153.462.214.715.174.253-.038.477-.177.625-.386l7.06-9.952c.29-.41.211-.975-.18-1.288-8.067-6.473-17.151-9.62-27.769-9.62-15.612 0-26.517 9.369-26.517 22.774 0 14.375 9.407 19.465 25.663 23.394 13.836 3.187 16.171 5.857 16.171 10.63 0 5.289-4.722 8.577-12.321 8.577-8.44 0-15.324-2.843-23.025-9.512-.191-.165-.453-.175-.674-.064-.223.111-.371.345-.371.6v11.797c0 .34.194.65.502.8 9.189 4.463 19.375 6.837 29.287 6.837 15.645 0 27.488-9.52 27.488-24.238 0-12.396-7.431-17.586-23.13-21.061zm107.858 48.565c-1.193 0-2.16-.969-2.16-2.16V64.344c0-1.192.967-2.158 2.16-2.158h11.352c1.193 0 2.16.966 2.16 2.158v60.647c0 1.191-.967 2.16-2.16 2.16h-11.352zM350.79 64.344c0-1.192.965-2.158 2.157-2.158h11.352c1.193 0 2.161.966 2.161 2.158v60.647c0 1.191-.968 2.16-2.161 2.16H352.95c-1.192 0-2.158-.969-2.158-2.16V64.344h-.002zm87.285 0c0-1.192.965-2.158 2.16-2.158h11.352c1.193 0 2.159.966 2.159 2.158v60.647c0 1.191-.966 2.16-2.159 2.16h-11.352c-1.195 0-2.16-.969-2.16-2.16V64.344zm-43.643 0c0-1.192.967-2.158 2.16-2.158h11.352c1.192 0 2.158.966 2.158 2.158v60.647c0 1.191-.966 2.16-2.158 2.16h-11.352c-1.193 0-2.16-.969-2.16-2.16V64.344z"/>
</svg>